<?xml version="1.0" encoding="iso-8859-1"?>
<!-- Generator: Adobe Illustrator 19.0.0, SVG Export Plug-In . SVG Version: 6.00 Build 0)  -->
<svg version="1.1" id="Layer_1" xmlns="http://www.w3.org/2000/svg" xmlns:xlink="http://www.w3.org/1999/xlink" x="0px" y="0px"
	 viewBox="0 0 291.764 291.764" style="enable-background:new 0 0 291.764 291.764;" xml:space="preserve">
<g>
	<path style="fill:#EAEDED;" d="M36.47,0h218.824c10.066,0,18.235,8.169,18.235,18.235v255.294c0,10.066-8.169,18.235-18.235,18.235
		H36.47c-10.066,0-18.235-8.169-18.235-18.235V18.235C18.234,8.16,26.404,0,36.47,0z"/>
	<path style="fill:#D3D6D8;" d="M45.587,27.353h200.588v63.824H45.587V27.353z"/>
	<path style="fill:#B7BBBD;" d="M191.47,45.588v27.353h36.471V45.588H191.47z M218.823,63.824h-18.235v-9.118h18.235V63.824z"/>
	<path style="fill:#49616E;" d="M45.587,154.991h36.471V118.52H45.587V154.991z M100.293,154.991h36.471V118.52h-36.471V154.991z
		 M154.999,118.529V155h36.471v-36.471H154.999z M45.587,209.697h36.471v-36.461H45.587V209.697z M100.293,209.697h36.471v-36.461
		h-36.471V209.697z M154.999,209.697h36.471v-36.461h-36.471V209.697z M45.587,264.403h36.471v-36.471H45.587V264.403z
		 M100.293,264.403h36.471v-36.471h-36.471V264.403z M154.999,264.403h36.471v-36.471h-36.471V264.403z"/>
	<path style="fill:#E2574C;" d="M209.705,118.529V155h36.471v-36.471H209.705z M209.705,264.403h36.471v-91.167h-36.471V264.403z"/>
</g>
<g>
</g>
<g>
</g>
<g>
</g>
<g>
</g>
<g>
</g>
<g>
</g>
<g>
</g>
<g>
</g>
<g>
</g>
<g>
</g>
<g>
</g>
<g>
</g>
<g>
</g>
<g>
</g>
<g>
</g>
</svg>
